<svg xmlns="http://www.w3.org/2000/svg" viewBox="0 0 24 24" fill="#ffffff">
  <path d="M12 2C6.477 2 2 6.589 2 12.253c0 4.529 2.862 8.371 6.839 9.728.5.094.682-.222.682-.493 0-.244-.009-.889-.014-1.745-2.782.62-3.369-1.375-3.369-1.375-.455-1.185-1.11-1.5-1.11-1.5-.908-.636.069-.623.069-.623 1.004.072 1.532 1.057 1.532 1.057.892 1.567 2.341 1.115 2.91.853.091-.662.349-1.115.635-1.371-2.221-.259-4.555-1.139-4.555-5.068 0-1.119.39-2.034 1.029-2.751-.103-.259-.446-1.302.098-2.714 0 0 .84-.276 2.75 1.051A9.406 9.406 0 0 1 12 6.956a9.4 9.4 0 0 1 2.504.346c1.909-1.327 2.747-1.051 2.747-1.051.546 1.412.203 2.455.1 2.714.64.717 1.028 1.632 1.028 2.751 0 3.939-2.338 4.806-4.566 5.06.359.318.678.945.678 1.904 0 1.374-.012 2.482-.012 2.819 0 .273.18.592.688.492C19.141 20.62 22 16.78 22 12.253 22 6.589 17.523 2 12 2Z" />
</svg>
